<svg height="1698.268" viewBox="0 0 1489.733 1698.268" width="1489.733" xmlns="http://www.w3.org/2000/svg">
    <path fill="#fff" d="M1489.668 1540.226l-50.734-1145.759c-.896-84.585-70.35-153.199-155.591-153.199h-257.892c-20.928-135-138.858-241.268-280.762-241.268-141.942 0-259.905 106.268-280.839 241.268h-257.537c-85.217 0-154.649 68.616-155.543 153.202l-50.706 1145.718c-.042.972-.064 1.958-.064 2.933 0 85.543 69.797 155.146 155.592 155.146h1178.556c85.79 0 155.586-69.583 155.586-155.127-.001-.974-.022-1.94-.066-2.914zm-744.979-1408.085c68.746 0 126.941 46.126 145.617 109.126h-291.308c18.686-62.999 76.91-109.126 145.691-109.126zm589.458 1434.127h-1178.555c-12.811 0-22.917-9.645-23.43-22.062l50.674-1145.048c.043-.971.064-2.111.064-3.084 0-12.695 10.283-22.806 23.412-22.806h253.688v241.459c0 36.49 29.51 66.07 66 66.07s66-29.58 66-66.07v-241.459h304v241.459c0 36.49 29.51 66.07 66 66.07s66-29.58 66-66.07v-241.459h255.343c13.153 0 23.457 10.095 23.457 22.79 0 .974.021 2.023.064 2.998l50.706 1145.117c-.513 12.413-10.617 22.095-23.423 22.095z"/>
</svg>
